<svg xmlns="http://www.w3.org/2000/svg" xml:space="preserve" width="800" height="800"
     style="enable-background:new 0 0 122.88 51.73" viewBox="0 -35.58 122.88 122.88"><path fill="currentColor" d="M16.55 3.48c.57-4.79 7.86-4.47 7.86 0v1.01c5.29 10.8 15.2 16.77 26.06 19 5.66 1.17 11.59 1.32 17.27.63 5.67-.69 11.08-2.23 15.7-4.46 7.2-3.47 12.5-8.59 13.91-14.73V3.48c.57-4.79 7.86-4.47 7.86 0v2.4c2.18 4.3 5.17 7.74 8.52 10.51 2.87 2.37 6.01 4.28 9.15 5.83v2.98c-1.16-.55-2.33-1.13-3.48-1.77v9.1h3.48v4.59h-17.67v14.62h-7.86V37.11H24.41v14.62h-7.86V37.11H0v-4.59h2.91v-9.4c-.96.55-1.94 1.06-2.91 1.55v-3.01c2.75-1.45 5.47-3.17 7.97-5.26 3.39-2.84 6.39-6.36 8.58-10.79V3.48zm50.18 23.45v5.59h-2.69v-5.38c-2.04.11-4.09.11-6.15 0v5.38H55.2v-5.6c-1.77-.18-3.53-.45-5.27-.81-.32-.07-.64-.13-.95-.21v6.61h-2.69v-7.3c-2.11-.6-4.16-1.35-6.15-2.25v9.55h-2.69V21.64c-2.2-1.19-4.29-2.59-6.22-4.2v15.08h-2.69V14.96c-1.51-1.54-2.9-3.24-4.14-5.1v22.67h72.95V11.58c-1.08 1.66-2.41 3.21-3.96 4.65v16.29H90.7V18.44a38.727 38.727 0 0 1-6.09 3.63l-.13.06v10.39h-2.69v-9.2c-1.96.79-4.02 1.47-6.15 2.03v7.18h-2.69v-6.54c-1.6.34-3.24.61-4.89.81-.44.04-.88.09-1.33.13zm45.15-8.59v14.19h4.83V21.84a44.15 44.15 0 0 1-4.69-3.39l-.14-.11zm-2.69 14.19V15.87a35.785 35.785 0 0 1-3.98-4.78v21.43h3.98v.01zM13.11 15.21v17.32h3.44V10.91a34.848 34.848 0 0 1-3.44 4.3zm-2.69 17.32V17.82c-.24.21-.49.43-.74.63a43.48 43.48 0 0 1-4.08 3.03v11.05h4.82z"/></svg>