<svg xmlns="http://www.w3.org/2000/svg" xml:space="preserve" width="800" height="800" viewBox="0 0 494.072 494.072"><path fill="currentColor" d="m379.012 77.334-21.93-3.311a187.624 187.624 0 0 0-97.705 11.315 108.478 108.478 0 0 1-71.404 3.206l-53.305-15.962v-7.248c9.256-6.508 15.342-17.217 15.342-29.386C150.01 16.101 133.912 0 114.055 0c-19.844 0-35.94 16.101-35.94 35.949 0 12.159 6.08 22.872 15.324 29.378v408.13c0 11.387 9.229 20.615 20.615 20.615 11.387 0 20.613-9.229 20.613-20.615v-187.57l53.305 15.961a108.433 108.433 0 0 0 71.404-3.205 187.593 187.593 0 0 1 97.705-11.313l8.963 1.346a43.401 43.401 0 0 0 34.809-10.018 43.422 43.422 0 0 0 15.103-32.924V120.271c.001-21.486-15.7-39.731-36.944-42.937z"/></svg>