<svg xmlns="http://www.w3.org/2000/svg" width="24" height="24">
    <path fill="currentColor"
          d="M12 2h9l3 3v2h-5v5h1v3.396c-1.66.085-2.782.652-3 1.604-.131.574.145 1.553 1.12 1.699.665.1 1.325-.24 1.657-.825.335-.661 1.201-.158.932.45C20.28 19.347 19.183 20 18 20a3.001 3.001 0 0 1-1-5.829V12h1V7h-6v17H6V7H5v2H0V2h6V0h6v2zm-2 18.052-2 .952V22h2v-1.948zm-2-1.821v1.773l2-.952v-1.774l-2 .953zm0-2.859v1.859l2-.953V14.42l-2 .952zm0-2.785v1.785l2-.952v-1.785l-2 .952zm0-2.768v1.768l2-.952V8.867l-2 .952zM10 7H8v1.819l2-.952V7zm10.017-3H2v3h1V5h18l-.983-1zM10 1H8v1h2V1z"/>
</svg>