<svg xmlns="http://www.w3.org/2000/svg" xml:space="preserve" width="800" height="800" viewBox="0 0 512 512"><path fill="currentColor" d="M205.021 462.878h-.137c-5.771 0-10.449 4.678-10.449 10.449s4.678 10.449 10.449 10.449h.137c5.771 0 10.449-4.678 10.449-10.449s-4.678-10.449-10.449-10.449z"/>
    <path fill="currentColor"
          d="M345.927 150.847h104.984a10.451 10.451 0 0 0 7.39-17.837L328.35 3.061A10.546 10.546 0 0 0 320.957 0H191.013c-2.881 0-5.679 1.233-7.639 3.336L53.7 133.008a10.448 10.448 0 0 0 7.39 17.837h104.985L53.647 264.948a10.447 10.447 0 0 0 7.443 17.782h115.6l-48.732 151.925H67.905c-5.771 0-10.449 4.678-10.449 10.449v56.446c0 5.771 4.678 10.449 10.449 10.449h376.163c5.771 0 10.449-4.678 10.449-10.449v-56.446c0-5.771-4.678-10.449-10.449-10.449h-60.051l-48.731-151.924H450.91a10.45 10.45 0 0 0 7.443-17.782L345.927 150.847zM331.411 35.676l94.274 94.273h-94.274V35.676zm-75.424 282.895-38.443-35.837h76.886l-38.443 35.837zm0 28.57 93.877 87.514H162.111l93.876-87.514zm-39.723-85.305 39.723-39.723 39.723 39.723h-79.446zm81.459-111.014-41.736 41.736-41.736-41.736h83.472zm-81.459-20.898 39.723-39.723 39.724 39.723h-79.447zm54.501 77.412 39.748-39.748v79.496l-39.748-39.748zm0-131.912 39.748-39.748v79.496l-39.748-39.748zm24.971-54.526-39.749 39.748-39.748-39.748h79.497zm-94.274 14.777 39.748 39.748-39.748 39.748V35.675zm0 131.913 39.748 39.748-39.748 39.748v-79.496zm-115.148-37.64 94.25-94.248v94.248h-94.25zm-.261 131.887 94.511-95.92v95.92H86.053zm109.88 29.323 44.731 41.699-82.894 77.276 38.163-118.975zM433.62 455.554v35.548H78.354v-7.325h92.725c5.771 0 10.449-4.678 10.449-10.449s-4.678-10.449-10.449-10.449H78.354v-7.326H433.62zm-79.416-45.422-82.894-77.275 44.731-41.7 38.163 118.975zm-22.793-148.298v-95.945l94.535 95.945h-94.535z"/></svg>