<svg xmlns="http://www.w3.org/2000/svg" xml:space="preserve" width="800" height="800" viewBox="0 0 467 467"><path fill="currentColor" d="m259.33 134.5 21.025-82.48c9.657-5.132 16.102-11.965 9.858-12.757-7.349-.932-12.259-2.563-15.908-4.418-.935-4.169-6.292-7.865-14.309-10.424-3.811-8.14-12.515-14.118-22.975-15.228v-5.67a3.523 3.523 0 0 0-7.045 0v5.67c-10.459 1.109-19.163 7.087-22.974 15.227-8.017 2.559-13.374 6.254-14.309 10.424-3.649 1.855-8.559 3.487-15.909 4.419-6.244.792.201 7.625 9.86 12.758l21.025 82.479h12.573c8.652 10.955-16.007 18.21-.979 30.5h2.064v16.036h-4.081a2.863 2.863 0 0 0 0 5.726h4.081v2.677h-4.081a2.863 2.863 0 1 0 0 5.726h4.081V298.68h-4.081a2.86 2.86 0 1 0 0 5.722h4.081v2.68h-4.081a2.86 2.86 0 1 0 0 5.723h4.081v45.199l-5.009-.004c-4.07 25.689-8.138 51.378-12.207 77.068h-5.693V467h70.164v-31.932h-5.692L250.684 358l-5.011.025v-45.22h4.083a2.861 2.861 0 1 0 0-5.723h-4.083v-2.68h4.083a2.861 2.861 0 1 0 0-5.722h-4.083V195.165h4.083a2.864 2.864 0 0 0 0-5.726h-4.083v-2.677h4.083a2.862 2.862 0 0 0 0-5.726h-4.083V165h2.064c15.026-12.289-9.629-19.545-.978-30.5h12.571zm-36.58-78.047c3.319 1.163 6.946 1.81 10.75 1.81s7.431-.646 10.75-1.81V123h-21.5V56.453zm30.5 65.463V57.134c2.421.406 4.963.626 7.587.626 2.898 0 6.022-.556 9.141-1.466l-16.728 65.622zm-56.226-65.621c3.118.909 6.242 1.465 9.14 1.465 2.624 0 5.166-.22 7.587-.626v64.778l-16.727-65.617z"/></svg>