<svg xmlns="http://www.w3.org/2000/svg" width="24" height="24">
    <path fill="currentColor"
          d="M15.929 11.517c.848-1.003 1.354-2.25 1.354-3.601s-.506-2.598-1.354-3.601l1.57-1.439c1.257 1.375 2.022 3.124 2.022 5.04s-.766 3.664-2.022 5.041l-1.57-1.44zM4.937 1.441 3.365 0C1.279 2.113 0 4.876 0 7.916s1.279 5.802 3.364 7.916l1.572-1.441c-1.672-1.747-2.697-4.001-2.697-6.475s1.026-4.728 2.698-6.475zm1.564 11.515 1.57-1.439c-.848-1.003-1.354-2.25-1.354-3.601s.506-2.598 1.354-3.601l-1.57-1.439C5.244 4.251 4.479 6 4.479 7.916s.765 3.664 2.022 5.04zM20.635 0l-1.571 1.441c1.672 1.747 2.697 4.001 2.697 6.475s-1.025 4.728-2.697 6.475l1.572 1.441C22.721 13.717 24 10.955 24 7.916S22.721 2.113 20.635 0zm-2.552 24h-2.154c-.85-2.203-2.261-3.066-3.929-3.066-1.692 0-3.088.886-3.929 3.066H5.958L11 10.732a2.993 2.993 0 0 1-2-2.816 3 3 0 0 1 6 0 2.992 2.992 0 0 1-2 2.816L18.083 24zm-4.077-5L12 13.786 9.994 19h4.012z"/>
</svg>