<svg xmlns="http://www.w3.org/2000/svg" xml:space="preserve" width="800" height="800" version="1.1"
     viewBox="0 0 512 512"><path fill="currentColor" d="m321.334 420.494-7.097-104.033-37.81-40.319-3.124.331-8.714 144.021-5.875 6.537L256.198 512h73.519l-2.508-84.969zM294.219 183.51c18.982 0 35.643 11.96 42.076 29.307l56.139-185.448c3.115-10.301-2.314-21.249-12.396-25.011l-2.88-1.076c-10.082-3.746-21.354.98-25.74 10.81l-78.843 176.977a44.454 44.454 0 0 1 13.189-4.749 45.125 45.125 0 0 1 8.455-.81zM452.949 386.202l-113.83-156.773c-.461 20.746-15.333 39.122-36.525 43.168a44.841 44.841 0 0 1-8.44.793c-2.54 0-5.032-.218-7.476-.631l132.538 141.326c7.363 7.849 19.549 8.625 27.842 1.764l2.371-1.958c8.295-6.854 9.832-18.974 3.52-27.689zM250.04 236.873c-2.606-13.675 1.311-27.09 9.556-37.075L70.918 243.921c-10.486 2.452-17.251 12.623-15.462 23.239l.509 3.034c1.789 10.6 11.523 18.004 22.22 16.879l192.731-20.204c-10.584-6.441-18.416-17.13-20.876-29.996z"/>
    <path fill="currentColor"
          d="M259.669 235.037c3.633 19.056 22.033 31.557 41.089 27.932 19.071-3.633 31.572-22.042 27.94-41.089-3.642-19.064-22.025-31.573-41.097-27.932-19.056 3.633-31.557 22.017-27.932 41.089zm31.305-23.441c9.306-1.772 18.288 4.328 20.067 13.65 1.78 9.306-4.337 18.286-13.651 20.059-9.305 1.772-18.278-4.337-20.059-13.634-1.779-9.305 4.338-18.295 13.643-20.075z"/></svg>