<svg xmlns="http://www.w3.org/2000/svg" xmlns:bx="https://boxy-svg.com" width="54.123" height="45.754" viewBox="238.441 182.504 54.123 45.754">
    <path d="M244.441 228.251s6-5.686 6-10a6 6 0 0 0-12 0c0 4.314 6 10 6 10m0-7a3 3 0 1 1 0-6 3 3 0 0 1 0 6M286.564 198.504s6-5.686 6-10a6 6 0 0 0-12 0c0 4.314 6 10 6 10m0-7a3 3 0 1 1 0-6 3 3 0 0 1 0 6" style="stroke-width:1px"/>
    <path bx:d="M 244.208 228.258 U 268.618 222.892 U 266.092 202.375 U 286.714 198.587 1@723fb8a3"
          d="m244.208 228.258 4.068-.894c4.069-.895 12.205-2.683 15.853-6.997 3.647-4.314 2.805-11.153 5.821-15.204 3.016-4.051 9.89-5.313 13.327-5.944l3.437-.632"
          style="fill:none;stroke:#000"/>
</svg>
